# xmcd
#
# Track frame offsets:
# 150
# 17667
# 36268
# 54280
# 74580
# 88392
# 109727
# 127296
# 147482
# 168501
# 183843
# 208847
# 233373
# 246082
# 269068
# 292497
# 307677
#
# Disc length: 4356 seconds
#
#
# Revision: 5
# Processed by: cddbd v1.5.1PL2 Copyright (c) Steve Scherf et al.
# Submitted via: FreeRIP 2.51 
#
DISCID=08110211
DTITLE=Parni Valjak - Kao nekada
DYEAR=2001
DGENRE=Rock
TTITLE0=Nije pomoglo
TTITLE1=Srcekrad
TTITLE2=Mir na jastuku
TTITLE3=Zastave
TTITLE4=Uvijek kad ostanem sam
TTITLE5=Vrijeme je na nasoj strani
TTITLE6=Dok je tebe
TTITLE7=Nemirno more
TTITLE8=Zapjevaj
TTITLE9=Javi se
TTITLE10=Jesen u meni
TTITLE11=Kada kola krenu
TTITLE12=Stojim vec satima
TTITLE13=700 Milja
TTITLE14=U ljubav vjerujem
TTITLE15=Ugasi me
TTITLE16=Gledam je dok spava
EXTD=YEAR: 2001 ID3G:  17
EXTT0=
EXTT1=
EXTT2=
EXTT3=
EXTT4=
EXTT5=
EXTT6=
EXTT7=
EXTT8=
EXTT9=
EXTT10=
EXTT11=
EXTT12=
EXTT13=
EXTT14=
EXTT15=
EXTT16=
PLAYORDER=
